<svg width="315" height="122" viewBox="0 0 315 122" fill="none" xmlns="http://www.w3.org/2000/svg">
<path d="M137.456 86.9536H97.6182V93.1952H137.456V86.9536Z" fill="#473575"/>
<path d="M97.6182 86.9536H57.7807V93.1952H97.6182V86.9536Z" fill="#2C234C"/>
<path d="M177.293 86.9536H137.456V93.1952H177.293V86.9536Z" fill="#6857A0"/>
<path d="M217.13 86.9536H177.293V93.1952H217.13V86.9536Z" fill="#796CAE"/>
<path d="M256.968 86.9536H217.13V93.1952H256.968V86.9536Z" fill="#C5B6DA"/>
<path d="M137.456 86.9536H97.6182V93.1952H137.456V86.9536Z" fill="#4E752E"/>
<path d="M97.6182 86.9536H57.7807V93.1952H97.6182V86.9536Z" fill="#3D5422"/>
<path d="M177.293 86.9536H137.456V93.1952H177.293V86.9536Z" fill="#80BB4E"/>
<path d="M217.13 86.9536H177.293V93.1952H217.13V86.9536Z" fill="#A5C852"/>
<path d="M256.968 86.9536H217.13V93.1952H256.968V86.9536Z" fill="#CCDFA4"/>
<path d="M137.456 86.9536H97.6182V93.1952H137.456V86.9536Z" fill="#6E1338"/>
<path d="M97.6182 86.9536H57.7807V93.1952H97.6182V86.9536Z" fill="#510F2D"/>
<path d="M177.293 86.9536H137.456V93.1952H177.293V86.9536Z" fill="#BA2260"/>
<path d="M217.13 86.9536H177.293V93.1952H217.13V86.9536Z" fill="#E62E79"/>
<path d="M256.968 86.9536H217.13V93.1952H256.968V86.9536Z" fill="#ED74A4"/>
<path d="M137.456 86.9536H97.6182V93.1952H137.456V86.9536Z" fill="#766B2F"/>
<path d="M97.6182 86.9536H57.7807V93.1952H97.6182V86.9536Z" fill="#5C5225"/>
<path d="M177.293 86.9536H137.456V93.1952H177.293V86.9536Z" fill="#C2A411"/>
<path d="M217.13 86.9536H177.293V93.1952H217.13V86.9536Z" fill="#F4CF18"/>
<path d="M256.968 86.9536H217.13V93.1952H256.968V86.9536Z" fill="#F7DE64"/>
<path d="M58.2432 66.6019C58.0797 66.383 57.8669 66.2055 57.6219 66.0841C57.3768 65.9626 57.1066 65.9005 56.833 65.9028C56.5176 65.9248 56.21 66.0106 55.9289 66.1552C55.6479 66.2997 55.3993 66.4999 55.1985 66.7436C54.7311 67.1627 54.2304 67.5432 53.7013 67.8813L53.4266 68.0778C52.6147 68.5618 51.7498 68.9512 50.8489 69.2384L50.6017 69.3298C49.2153 69.7834 47.7609 69.9951 46.3025 69.9558C44.5876 69.9815 42.8887 69.624 41.3302 68.9094C39.8533 68.2422 38.5558 67.2354 37.5438 65.9714C36.401 64.5517 35.5598 62.9146 35.0714 61.1599C34.4605 58.9632 34.1676 56.6906 34.2015 54.4111C34.1686 52.1812 34.4617 49.9585 35.0714 47.813C35.5806 46.036 36.4243 44.372 37.5575 42.9102C38.597 41.5913 39.9377 40.54 41.4676 39.8442C43.1563 39.1122 44.9837 38.7536 46.8244 38.7933C48.7364 38.8529 50.6272 39.2106 52.4285 39.8533C52.4285 40.1366 52.4559 40.4245 52.4697 40.7078C52.4697 41.2058 52.7215 44.3632 52.8451 45.1537C52.9871 47.3927 54.4567 47.7262 55.3221 47.7262H57.9547V36.9153L55.4045 36.1294C53.9897 35.7135 52.4422 35.2795 50.7573 34.9139C49.3942 34.5895 48.0009 34.4073 46.6001 34.3702C43.5874 34.3702 41.2066 34.8271 39.1051 35.8004C36.9333 36.7538 35.0086 38.1901 33.4781 39.9995C31.9508 41.8801 30.8006 44.0364 30.09 46.3509C29.2582 48.9567 28.8395 51.6762 28.8493 54.4111C28.7943 57.2448 29.2136 60.0678 30.09 62.7637C30.7939 65.0822 31.9778 67.2274 33.5651 69.0602C35.0298 70.7805 36.8744 72.1382 38.954 73.0264C41.0935 73.9968 43.4214 74.4836 45.7714 74.452C47.2006 74.4642 48.6264 74.3109 50.0202 73.9951C51.2886 73.7284 52.5345 73.3648 53.7471 72.9076C54.8671 72.4444 55.9179 71.8294 56.8696 71.0798C57.7373 70.4282 58.5161 69.6663 59.1863 68.8135L59.603 68.2971L58.2432 66.6019Z" fill="black"/>
<path d="M71.5071 48.8914C73.7322 44.3861 76.8044 42.106 80.7739 42.106C82.2318 42.077 83.6693 42.4518 84.9266 43.1889L84.2673 47.2099C84.1483 47.6942 83.8461 47.9912 83.4844 47.9912C82.9912 47.9554 82.5049 47.8556 82.0376 47.6942C81.2359 47.473 80.4058 47.3713 79.5744 47.3927C76.081 47.3927 73.4346 49.5539 71.7497 53.7577V68.7769C72.2305 68.8957 73.3751 69.0739 75.179 69.4349C75.4495 69.4715 75.6954 69.6105 75.8659 69.8232C76.0364 70.0359 76.1183 70.3059 76.0947 70.5772V73.1086H62.0571V70.5864C62.0334 70.315 62.1153 70.045 62.2858 69.8323C62.4563 69.6196 62.7023 69.4806 62.9728 69.444L66.4066 68.7861V47.0957C64.4791 46.7347 63.3345 46.4971 62.9728 46.3737C62.7023 46.3372 62.4563 46.1981 62.2858 45.9854C62.1153 45.7728 62.0334 45.5027 62.0571 45.2314V42.7091H69.4605C70.0648 42.7091 70.3762 42.7731 70.6051 43.0107C70.8677 43.34 71.0341 43.7353 71.0858 44.153L71.4475 48.896L71.5071 48.8914Z" fill="black"/>
<path d="M99.303 42.2294C101.024 42.2224 102.731 42.5322 104.339 43.1432C105.843 43.6953 107.201 44.5794 108.314 45.7295C109.481 46.9529 110.382 48.4045 110.96 49.9926C111.618 51.8392 111.951 53.7854 111.944 55.7453C111.944 56.5861 111.88 57.1892 111.702 57.4268C111.563 57.5719 111.393 57.6848 111.206 57.7574C111.018 57.83 110.817 57.8607 110.616 57.8472H90.3979C90.3678 59.5501 90.6105 61.2469 91.1167 62.8734C91.5536 64.1627 92.25 65.3491 93.1633 66.3598C93.9771 67.3132 95.011 68.055 96.1759 68.5211C97.3989 69.0137 98.7077 69.2591 100.026 69.243C101.204 69.2723 102.379 69.1307 103.515 68.8226C104.384 68.5507 105.229 68.2084 106.043 67.7991C106.766 67.4381 107.37 67.1411 107.851 66.8396C108.203 66.5795 108.619 66.4214 109.055 66.3826C109.259 66.3701 109.462 66.4138 109.642 66.5089C109.822 66.604 109.972 66.7469 110.076 66.9218L111.583 68.9049C110.907 69.7227 110.092 70.4142 109.174 70.9474C108.255 71.5635 107.265 72.0667 106.226 72.4461C105.166 72.8115 104.079 73.0927 102.975 73.2868C101.882 73.4778 100.775 73.5787 99.6648 73.5884C97.6671 73.607 95.6847 73.2392 93.8272 72.5055C92.0673 71.7897 90.4857 70.6979 89.1937 69.307C87.8412 67.8426 86.82 66.1051 86.1994 64.2122C85.4441 61.9695 85.0787 59.6143 85.1189 57.2486C85.106 55.2404 85.4517 53.246 86.1399 51.3588C86.7617 49.5949 87.7142 47.9651 88.9465 46.5565C90.2042 45.1797 91.7438 44.0889 93.4609 43.358C95.3447 42.5714 97.3712 42.1825 99.4129 42.2157L99.303 42.2294ZM99.477 46.1498C96.8856 46.1498 94.839 46.8718 93.3968 48.3705C91.9546 49.8692 90.9885 51.9757 90.6268 54.6167H107.178C107.19 53.4733 107.007 52.3362 106.638 51.2537C106.342 50.2659 105.85 49.3475 105.191 48.5533C104.5 47.8052 103.659 47.2105 102.723 46.8078C101.713 46.3676 100.621 46.1435 99.5182 46.1498H99.477Z" fill="black"/>
<path d="M140.633 69.3801C140.881 69.4124 141.108 69.5337 141.272 69.7213C141.437 69.9088 141.527 70.1498 141.526 70.399V72.9853H135.267C134.835 72.9736 134.409 72.8918 134.003 72.7431C133.642 72.6243 133.523 72.2862 133.404 71.7835L132.799 68.9003C131.957 69.6223 131.114 70.2711 130.391 70.8788C129.662 71.4738 128.851 71.9602 127.983 72.3227C127.128 72.701 126.243 73.0068 125.336 73.2366C124.269 73.4683 123.177 73.5695 122.086 73.5381C120.979 73.55 119.878 73.3675 118.835 72.999C117.846 72.7016 116.926 72.2108 116.129 71.5551C115.367 70.8409 114.754 69.9838 114.325 69.0328C113.838 67.8952 113.612 66.6637 113.661 65.4277C113.654 64.2008 113.987 62.9958 114.623 61.9459C115.449 60.6996 116.564 59.6699 117.873 58.9438C119.679 57.9352 121.627 57.205 123.651 56.778C126.544 56.1958 129.492 55.9293 132.442 55.9829V53.6435C132.442 51.24 131.902 49.4397 130.876 48.238C129.851 47.0363 128.349 46.3737 126.362 46.3737C125.235 46.3425 124.113 46.5271 123.056 46.9175C122.261 47.2049 121.495 47.5659 120.767 47.9958C120.103 48.4162 119.503 48.7178 119.023 49.0787C118.631 49.3848 118.146 49.5463 117.649 49.5357C117.311 49.5566 116.975 49.4719 116.688 49.2935C116.44 49.0982 116.236 48.8539 116.088 48.5761L115.122 46.8946C116.698 45.3864 118.532 44.173 120.538 43.3123C122.598 42.4661 124.812 42.0568 127.04 42.1106C128.608 42.0649 130.169 42.3515 131.618 42.9513C132.863 43.4844 133.989 44.2613 134.928 45.236C135.864 46.2754 136.563 47.5055 136.975 48.8411C137.447 50.3581 137.671 51.9411 137.639 53.5292V68.7221C138.651 68.9095 140.683 69.3847 140.633 69.3801ZM132.319 59.4008C130.224 59.3629 128.13 59.5035 126.06 59.8211C124.611 60.0739 123.197 60.4973 121.848 61.0823C120.893 61.4485 120.06 62.0717 119.439 62.8826C118.968 63.5516 118.716 64.3495 118.716 65.1672C118.717 65.8694 118.86 66.5643 119.137 67.2097C119.359 67.7803 119.734 68.2785 120.222 68.649C120.691 69.005 121.222 69.27 121.788 69.4304C122.43 69.6286 123.098 69.7302 123.771 69.7319C124.622 69.7331 125.471 69.6319 126.298 69.4304C127.07 69.2615 127.819 68.9991 128.528 68.649C129.233 68.2775 129.899 67.835 130.515 67.3285C131.144 66.799 131.746 66.2377 132.319 65.647V59.4008Z" fill="black"/>
<path d="M285.002 69.3801C285.253 69.4081 285.486 69.5275 285.654 69.7154C285.823 69.9033 285.917 70.1466 285.918 70.399V72.9852H279.636C279.204 72.9736 278.778 72.8918 278.372 72.7431C278.011 72.6243 277.892 72.2861 277.773 71.7835L277.173 68.9003C276.326 69.6222 275.483 70.2711 274.764 70.8788C274.035 71.4728 273.224 71.9591 272.356 72.3227C271.5 72.701 270.613 73.0067 269.705 73.2365C268.639 73.4683 267.549 73.5695 266.459 73.5381C265.352 73.5504 264.252 73.3678 263.208 72.9989C262.218 72.7022 261.296 72.2113 260.498 71.5551C259.738 70.8396 259.125 69.9828 258.694 69.0328C258.21 67.8945 257.983 66.6635 258.03 65.4276C258.022 64.2001 258.357 62.9945 258.996 61.9458C259.82 60.6987 260.934 59.6688 262.242 58.9438C264.048 57.936 265.996 57.2058 268.02 56.778C270.914 56.2007 273.861 55.9387 276.811 55.9966V53.6434C276.811 51.24 276.266 49.4397 275.245 48.238C274.224 47.0363 272.718 46.3737 270.731 46.3737C269.603 46.3426 268.479 46.5271 267.421 46.9175C266.626 47.2058 265.86 47.5668 265.131 47.9958C264.472 48.4162 263.868 48.7178 263.387 49.0787C262.996 49.3851 262.51 49.5466 262.013 49.5357C261.675 49.5578 261.339 49.473 261.052 49.2935C260.802 49.0998 260.596 48.8553 260.448 48.5761L259.486 46.8946C261.058 45.3763 262.894 44.1548 264.902 43.2894C266.962 42.4422 269.177 42.0329 271.404 42.0877C272.972 42.0425 274.533 42.329 275.982 42.9285C277.227 43.4627 278.352 44.2394 279.293 45.2131C280.227 46.2529 280.924 47.483 281.335 48.8183C281.809 50.3347 282.033 51.9181 281.998 53.5064V68.6993C283.019 68.9094 285.071 69.3846 285.002 69.3801ZM276.687 59.4007C274.593 59.3629 272.499 59.5035 270.429 59.8211C268.98 60.0746 267.566 60.4979 266.216 61.0822C265.262 61.4485 264.429 62.0717 263.808 62.8825C263.338 63.552 263.087 64.3499 263.089 65.1672C263.088 65.8696 263.231 66.5649 263.511 67.2097C263.729 67.7809 264.103 68.2795 264.591 68.649C265.06 69.0041 265.591 69.269 266.157 69.4303C266.801 69.6289 267.47 69.7305 268.144 69.7319C268.995 69.7325 269.844 69.6313 270.671 69.4303C271.442 69.2615 272.189 68.9991 272.896 68.649C273.603 68.2797 274.269 67.837 274.884 67.3285C275.514 66.8001 276.116 66.2388 276.687 65.647V59.4007Z" fill="black"/>
<path d="M153.274 47.0363C156.284 43.7921 159.654 42.17 163.384 42.17C166.634 42.17 169.162 43.1935 170.966 45.3685C172.655 47.411 173.557 50.2302 173.557 53.7166V68.6718C175.48 69.0343 176.623 69.275 176.986 69.3938C177.26 69.4301 177.511 69.5674 177.689 69.7788C177.867 69.9901 177.959 70.2603 177.948 70.5361V73.1086H168.2V53.7623C168.2 48.9599 166.094 46.4514 161.818 46.4514C158.81 46.4514 156.044 47.8907 153.512 50.7145V68.7312C153.636 68.7312 154.84 68.9734 157.006 69.4532C157.276 69.4897 157.522 69.6288 157.693 69.8415C157.863 70.0542 157.945 70.3242 157.921 70.5955V73.1086H143.888V70.5864C143.851 70.3239 143.919 70.0573 144.076 69.8438C144.234 69.6304 144.469 69.4868 144.731 69.4441L148.224 68.7861V47.0957C146.297 46.7347 145.092 46.4971 144.731 46.3737C144.47 46.3309 144.235 46.1881 144.078 45.9756C143.921 45.7631 143.853 45.4978 143.888 45.236V42.7092H151.351C151.681 42.6936 152.006 42.7932 152.27 42.9909C152.534 43.1885 152.721 43.4718 152.798 43.7921L153.279 47.0957L153.274 47.0363Z" fill="black"/>
<path d="M191.679 42.0969C193.251 42.0518 194.815 42.3503 196.26 42.9714C197.705 43.5926 198.996 44.5214 200.044 45.6929V33.205C197.997 32.8441 196.614 32.6065 196.01 32.4877C195.745 32.4644 195.5 32.3375 195.328 32.1346C195.157 31.9317 195.073 31.6693 195.094 31.4047V28.7865H205.327V68.6673C207.25 69.0282 208.454 69.2704 208.816 69.3892C208.943 69.4033 209.066 69.4426 209.177 69.5047C209.289 69.5669 209.386 69.6507 209.465 69.7512C209.543 69.8517 209.601 69.9668 209.634 70.0899C209.667 70.2129 209.676 70.3413 209.658 70.4676V73.1086H202.195C201.86 73.1109 201.534 72.9989 201.271 72.7912C201.008 72.5835 200.824 72.2926 200.749 71.9663L200.268 68.3109C197.379 71.7972 194.009 73.4787 190.04 73.4787C186.427 73.4787 183.657 72.1536 181.611 69.5126C179.564 66.8715 178.483 63.0288 178.483 57.9797C178.483 53.4104 179.688 49.5722 182.032 46.689C183.174 45.221 184.647 44.0423 186.331 43.2484C188.015 42.4546 189.863 42.0679 191.724 42.1197L191.679 42.0969ZM191.857 69.1836C194.989 69.1836 197.754 67.6255 200.044 64.5595V49.9058C198.237 47.5023 195.889 46.3006 193.002 46.3006C190.113 46.3006 187.883 47.2602 186.322 49.3026C184.761 51.3451 184.033 54.2283 184.033 57.9523C184.033 63.7187 185.479 67.2051 188.487 68.5256C189.533 68.9683 190.658 69.1922 191.793 69.1836H191.857Z" fill="black"/>
<path d="M256.432 70.5224V73.1086H242.349V70.527C242.337 70.2512 242.429 69.981 242.607 69.7696C242.785 69.5582 243.036 69.4209 243.31 69.3847L246.68 68.7221V33.2187C244.752 32.8623 243.672 32.6202 243.31 32.5014C243.041 32.4781 242.792 32.3528 242.613 32.1513C242.434 31.9498 242.34 31.6875 242.349 31.4184V28.8368H252.096V68.6581C254.024 69.0191 255.104 69.2613 255.466 69.3801C255.741 69.4163 255.992 69.5534 256.171 69.7647C256.349 69.976 256.443 70.2461 256.432 70.5224Z" fill="black"/>
<path d="M238.356 51.3588C237.756 49.5295 236.768 47.851 235.458 46.4377C234.157 45.0758 232.576 44.0099 230.825 43.3123C226.942 41.8746 222.671 41.8746 218.788 43.3123C217.034 44.0086 215.452 45.0747 214.15 46.4377C212.842 47.8629 211.836 49.5366 211.192 51.3588C210.485 53.4467 210.159 55.6444 210.231 57.8472C210.159 60.05 210.485 62.2477 211.192 64.3356C211.833 66.1589 212.835 67.8344 214.141 69.2613C215.443 70.6228 217.025 71.6874 218.779 72.3821C222.623 73.8117 226.852 73.8263 230.706 72.4232C230.017 72.078 229.409 71.5921 228.92 70.997C228.432 70.4018 228.075 69.7108 227.872 68.9689C226.871 69.2536 225.835 69.3922 224.795 69.3801C223.426 69.3825 222.071 69.096 220.821 68.5393C219.736 68.0632 218.791 67.3195 218.074 66.3781C217.275 65.3013 216.702 64.0752 216.389 62.7729C215.983 61.2042 215.775 59.5908 215.771 57.9706C215.771 56.3103 215.974 54.6561 216.375 53.0449C216.689 51.7426 217.262 50.5165 218.06 49.4397C218.771 48.4622 219.715 47.677 220.807 47.1551C222.066 46.639 223.42 46.393 224.781 46.4331C227.789 46.4331 230.078 47.3927 231.521 49.4352C232.963 51.4776 233.75 54.3014 233.75 57.902C233.762 59.299 233.623 60.6931 233.334 62.0601C234.319 62.0916 235.278 62.3885 236.108 62.9194C236.938 63.4503 237.609 64.1954 238.05 65.0758C238.146 64.8337 238.237 64.5823 238.324 64.331C239.685 60.1121 239.685 55.5732 238.324 51.3543L238.356 51.3588Z" fill="black"/>
<path d="M233.366 62.0647C233.054 63.6114 232.431 65.0789 231.534 66.3781C230.648 67.6357 229.354 68.5505 227.872 68.9689C227.742 68.5016 227.677 68.0189 227.679 67.5341C227.679 66.0799 228.258 64.6852 229.288 63.6569C230.319 62.6286 231.716 62.051 233.173 62.051L233.366 62.0647Z" fill="black"/>
<path d="M238.663 67.5341C238.659 68.4658 238.418 69.3812 237.962 70.1939C237.505 71.0067 236.849 71.6899 236.054 72.1792C235.26 72.6684 234.353 72.9476 233.421 72.9903C232.488 73.033 231.56 72.8378 230.724 72.4232L230.834 72.3821C232.582 71.685 234.159 70.6206 235.458 69.2613C236.591 68.0482 237.478 66.6287 238.072 65.0804C238.459 65.8409 238.661 66.6813 238.663 67.5341Z" fill="black"/>
</svg>
